<svg height="512" viewBox="0 0 64 64" width="512" xmlns="http://www.w3.org/2000/svg"><path d="m32 54v7h-18v-3l-1-4 5.85-3.34 1.15-.66 1.95.28 5.05.72z" fill="#ad6327"/><path d="m53 55v6h-21v-7l4-3 3.84-.55 3.16-.45.1.02 3.14.79h.01l2.19.55h.01l2.55.64z" fill="#952"/><path d="m53 55 7 1 1 3v2h-8z" fill="#723a15"/><path d="m13 54-6 1-4 3v3h11v-3z" fill="#723a15"/><path d="m32 48s-10 1-12-8 1-12-1-14a8.217 8.217 0 0 1 6 7s0-7 2-10a54.362 54.362 0 0 0 4-8s5 8 5 13a14.934 14.934 0 0 1 6-6s1 11 2 17c.885 5.312-7 9-12 9z" fill="#e97424"/><path d="m37 43a5 5 0 0 1 -10 0c0-5 5-13 5-13s5 8 5 13z" fill="#fcf05a"/><path d="m29 25h2v2h-2z" fill="#e1462b"/><path d="m37 31h2v2h-2z" fill="#e1462b"/><path d="m23 36h2v2h-2z" fill="#e1462b"/><path d="m38 18s-5.429-5.543-1-9 4.747-4.08 4-6c0 0 6.142 5.987 1 10-4.429 3.457-4 5-4 5z" fill="#fcf05a"/><path d="m20 22s6.875-3.125 3-7c-3-3-5.747-4.208-5-6 0 0-5.142 4.254 0 8 4.429 3.226 2 5 2 5z" fill="#fcf05a"/><g fill="#e1462b"><path d="m27 6h2v2h-2z"/><path d="m27 10h2v2h-2z"/><path d="m25 8h2v2h-2z"/><path d="m29 8h2v2h-2z"/><path d="m48 15h2v2h-2z"/><path d="m48 19h2v2h-2z"/><path d="m46 17h2v2h-2z"/><path d="m50 17h2v2h-2z"/><path d="m12 22h2v2h-2z"/><path d="m12 26h2v2h-2z"/><path d="m10 24h2v2h-2z"/><path d="m14 24h2v2h-2z"/></g><path d="m26.97 57.76-1.94.48-.92-3.67-3.45-2.76-.61 3.05.84 1.69-1.78.9-1-2a1.041 1.041 0 0 1 -.09-.65l.83-4.14 1.15-.66 1.95.28 3.68 2.94a.968.968 0 0 1 .34.54z" fill="#723a15"/><path d="m43.1 50.02-3.23 3.23-.92 2.77-1.9-.63 1-3a.983.983 0 0 1 .24-.39l1.55-1.55 3.16-.45z" fill="#723a15"/><path d="m49 53.71v3h-2v-2.88l-.75-3.02 2.19.55h.01l.52 2.1a1.068 1.068 0 0 1 .03.25z" fill="#723a15"/><path d="m43 55h2v2h-2z" fill="#723a15"/></svg>