<?xml version="1.0" encoding="iso-8859-1"?>
<!-- Generator: Adobe Illustrator 19.0.0, SVG Export Plug-In . SVG Version: 6.00 Build 0)  -->
<svg version="1.1" id="Capa_1" xmlns="http://www.w3.org/2000/svg" xmlns:xlink="http://www.w3.org/1999/xlink" x="0px" y="0px"
	 viewBox="0 0 512 512" style="enable-background:new 0 0 512 512;" xml:space="preserve">
<path style="fill:#00BCE7;" d="M12.723,439.045L1.105,466.929c-1.715,4.116,1.309,8.653,5.768,8.653h498.871
	c4.459,0,7.483-4.537,5.769-8.653L387.316,168.854c-0.971-2.329-3.245-3.845-5.769-3.845H126.902L12.723,439.045z"/>
<g>
	<path style="fill:#0094D4;" d="M511.512,466.929L387.316,168.854c-0.971-2.329-3.245-3.845-5.768-3.845h-23.429
		c2.522,0,4.798,1.516,5.768,3.845l124.197,298.075c1.715,4.116-1.309,8.653-5.769,8.653h23.429
		C510.203,475.58,513.228,471.045,511.512,466.929z"/>
	<path style="fill:#0094D4;" d="M252.703,466.93c-20.919-50.208-125.799-301.922-125.8-301.922L35.56,384.234L1.105,466.929
		c-1.715,4.116,1.309,8.653,5.768,8.653h240.062C251.394,475.58,254.418,471.046,252.703,466.93z"/>
</g>
<path style="fill:#58565C;" d="M126.903,241.835c-4.314,0-7.811-3.497-7.811-7.811v-69.016c0-4.314,3.497-7.811,7.811-7.811
	s7.811,3.497,7.811,7.811v69.016C134.714,238.338,131.217,241.835,126.903,241.835z"/>
<path style="fill:#00BCE7;" d="M49.262,475.58L1.831,428.153c-2.407-2.407-2.445-6.297-0.085-8.751l125.16-130.166L73.008,475.58
	L49.262,475.58L49.262,475.58z"/>
<path style="fill:#FFD151;" d="M126.903,36.418c-4.314,0-7.811,3.497-7.811,7.811v120.779c0,4.314,3.497,7.811,7.811,7.811
	s7.811-3.497,7.811-7.811V44.229C134.714,39.915,131.217,36.418,126.903,36.418z"/>
<path style="fill:#F79B4A;" d="M119.092,151.589v13.419c0,4.314,3.497,7.811,7.811,7.811s7.811-3.497,7.811-7.811v-13.419H119.092z"
	/>
<path style="fill:#00CE96;" d="M215.552,113.244h-88.648V52.856h88.648c3.451,0,6.249,2.797,6.249,6.249v47.89
	C221.801,110.446,219.002,113.244,215.552,113.244z"/>
<path style="fill:#00BA88;" d="M215.552,52.856h-20.83c3.451,0,6.249,2.797,6.249,6.249v47.89c0,3.452-2.797,6.249-6.249,6.249
	h20.83c3.451,0,6.249-2.797,6.249-6.249v-47.89C221.801,55.653,219.002,52.856,215.552,52.856z"/>
<polygon style="fill:#0076B5;" points="204.546,475.58 126.904,289.237 49.262,475.58 "/>
<path style="fill:#0094D4;" d="M497.485,433.264h-266.65c-4.314,0-7.811,3.497-7.811,7.811c0,4.314,3.497,7.811,7.811,7.811h273.16
	L497.485,433.264z"/>
<g>
</g>
<g>
</g>
<g>
</g>
<g>
</g>
<g>
</g>
<g>
</g>
<g>
</g>
<g>
</g>
<g>
</g>
<g>
</g>
<g>
</g>
<g>
</g>
<g>
</g>
<g>
</g>
<g>
</g>
</svg>
