<svg id="Layer_1" enable-background="new 0 0 256 256" height="512" viewBox="0 0 256 256" width="512" xmlns="http://www.w3.org/2000/svg"><path d="m218.671 152.508h10.339v66.152h-10.339z" fill="#fcc24c"/><path d="m229.01 220.66h-10.339c-1.104 0-2-.896-2-2v-66.152c0-1.104.896-2 2-2h10.339c1.104 0 2 .896 2 2v66.152c0 1.105-.896 2-2 2zm-8.339-4h6.339v-62.152h-6.339z" fill="#690589"/><path d="m179.15 185.584h72.85v14.547h-72.85z" fill="#7bac51"/><ellipse cx="223.844" cy="218.638" fill="#7bac51" rx="12.199" ry="12.199" transform="matrix(.767 -.642 .642 .767 -88.144 194.725)"/><path d="m223.838 232.836c-3.704 0-7.2-1.414-9.869-3.997-2.725-2.638-4.26-6.179-4.321-9.971-.062-3.792 1.356-7.381 3.994-10.106s6.179-4.26 9.972-4.322c.078-.001.156-.002.234-.002 7.723 0 14.067 6.217 14.194 13.967.127 7.828-6.139 14.3-13.967 14.428-.079.003-.158.003-.237.003zm.009-24.397c-.057 0-.112 0-.169.001-2.724.044-5.267 1.147-7.162 3.104-1.895 1.958-2.913 4.536-2.868 7.259.044 2.724 1.146 5.268 3.104 7.162 1.958 1.895 4.489 2.902 7.26 2.87 5.622-.092 10.123-4.741 10.031-10.364-.092-5.566-4.649-10.032-10.196-10.032z" fill="#690589"/><path d="m228.71 218.559c.044 2.687-2.099 4.901-4.786 4.945s-4.901-2.099-4.945-4.786 2.099-4.901 4.786-4.945c2.687-.045 4.901 2.098 4.945 4.786z" fill="#f4efed"/><path d="m242 185.584h10v14.547h-10z" fill="#5d8e33"/><path d="m252 202.131h-72.85c-1.104 0-2-.896-2-2v-14.546c0-1.104.896-2 2-2h72.85c1.104 0 2 .896 2 2v14.546c0 1.104-.896 2-2 2zm-70.85-4h68.85v-10.546h-68.85z" fill="#690589"/><path d="m223.844 225.504c-3.735 0-6.804-3.007-6.865-6.754-.062-3.785 2.968-6.916 6.754-6.977.037-.001.075-.001.112-.001 3.735 0 6.804 3.007 6.865 6.754.062 3.785-2.968 6.916-6.754 6.977-.037.001-.075.001-.112.001zm0-9.733c-.016 0-.031 0-.047 0-1.58.026-2.845 1.333-2.818 2.913s1.357 2.811 2.913 2.82c1.58-.026 2.845-1.333 2.818-2.913-.025-1.564-1.307-2.82-2.866-2.82z" fill="#690589"/><path d="m192.393 200.131h-178.073c-5.7 0-10.32-4.62-10.32-10.32v-134.53c0-5.7 4.621-10.32 10.32-10.32h178.072c5.7 0 10.32 4.621 10.32 10.32v134.529c.001 5.7-4.62 10.321-10.319 10.321z" fill="#f4efed"/><path d="m14 189.811v-134.53c0-5.7 4.62-10.32 10.32-10.32h-10c-5.7 0-10.32 4.621-10.32 10.32v134.529c0 5.7 4.62 10.32 10.32 10.32h10c-5.7.001-10.32-4.62-10.32-10.319z" fill="#fff"/><path d="m192.393 44.961h-10c5.7 0 10.32 4.621 10.32 10.32v134.529c0 5.7-4.621 10.32-10.32 10.32h10c5.7 0 10.32-4.621 10.32-10.32v-134.529c0-5.699-4.621-10.32-10.32-10.32z" fill="#d6d1cf"/><path d="m4 138.542h198.713v13.966h-198.713z" fill="#7bac51"/><path d="m37.883 25.163h130.947c5.7 0 10.32 4.621 10.32 10.32v9.477h-151.587v-9.477c0-5.699 4.62-10.32 10.32-10.32z" fill="#7bac51"/><path d="m168.83 25.163h-10c5.7 0 10.32 4.621 10.32 10.32v9.477h10v-9.477c0-5.699-4.621-10.32-10.32-10.32z" fill="#5d8e33"/><path d="m37.883 25.163h10c-5.7 0-10.32 4.621-10.32 10.32v9.477h-10v-9.477c0-5.699 4.621-10.32 10.32-10.32z" fill="#99ca6f"/><path d="m192.713 138.542h10v13.966h-10z" fill="#5d8e33"/><path d="m4 138.542h10v13.966h-10z" fill="#99ca6f"/><g fill="#690589"><path d="m202.713 154.508h-198.713c-1.104 0-2-.896-2-2v-13.966c0-1.104.896-2 2-2h198.713c1.104 0 2 .896 2 2v13.966c0 1.105-.896 2-2 2zm-196.713-4h194.713v-9.966h-194.713z"/><path d="m192.393 202.131h-178.073c-6.793 0-12.32-5.527-12.32-12.32v-134.53c0-6.793 5.527-12.32 12.32-12.32h178.072c6.793 0 12.32 5.527 12.32 12.32v134.529c.001 6.794-5.526 12.321-12.319 12.321zm-178.073-155.17c-4.588 0-8.32 3.732-8.32 8.32v134.529c0 4.588 3.732 8.32 8.32 8.32h178.072c4.588 0 8.32-3.732 8.32-8.32v-134.529c0-4.588-3.732-8.32-8.32-8.32z"/><path d="m12 83.558c-1.104 0-2-.896-2-2v-12c0-1.104.896-2 2-2s2 .896 2 2v12c0 1.105-.896 2-2 2z"/><path d="m179.15 46.961h-151.587c-1.104 0-2-.896-2-2v-9.477c0-6.793 5.527-12.32 12.32-12.32h130.947c6.793 0 12.32 5.527 12.32 12.32v9.477c0 1.104-.895 2-2 2zm-149.587-4h147.587v-7.477c0-4.588-3.732-8.32-8.32-8.32h-130.947c-4.588 0-8.32 3.732-8.32 8.32z"/></g><path d="m179.15 200.131h-71.638v-125.418c0-5.7 4.621-10.32 10.32-10.32h50.997c5.7 0 10.32 4.62 10.32 10.32v125.418z" fill="#fcc24c"/><path d="m168.83 64.392h-7c5.7 0 10.32 4.621 10.32 10.32v125.418h7v-125.417c0-5.7-4.621-10.321-10.32-10.321z" fill="#dea42e"/><path d="m117.833 64.392h7c-5.7 0-10.32 4.621-10.32 10.32v125.418h-7v-125.417c-.001-5.7 4.62-10.321 10.32-10.321z" fill="#fce06a"/><path d="m162.244 106.211h-37.825c-2.85 0-5.16-2.31-5.16-5.16v-18.238c0-2.85 2.31-5.16 5.16-5.16h37.825c2.85 0 5.16 2.31 5.16 5.16v18.238c0 2.85-2.311 5.16-5.16 5.16z" fill="#f4efed"/><path d="m179.15 202.131h-71.638c-1.104 0-2-.896-2-2v-125.418c0-6.793 5.527-12.32 12.32-12.32h50.997c6.793 0 12.32 5.527 12.32 12.32v125.418c.001 1.104-.894 2-1.999 2zm-69.637-4h67.638v-123.418c0-4.588-3.732-8.32-8.32-8.32h-50.997c-4.588 0-8.32 3.732-8.32 8.32v123.418z" fill="#690589"/><path d="m162.243 108.211h-37.824c-3.948 0-7.16-3.212-7.16-7.161v-18.238c0-3.948 3.212-7.16 7.16-7.16h37.824c3.948 0 7.16 3.212 7.16 7.16v18.238c0 3.949-3.212 7.161-7.16 7.161zm-37.824-28.558c-1.743 0-3.16 1.417-3.16 3.16v18.238c0 1.743 1.417 3.161 3.16 3.161h37.824c1.742 0 3.16-1.418 3.16-3.161v-18.239c0-1.742-1.418-3.16-3.16-3.16h-37.824z" fill="#690589"/><ellipse cx="60.929" cy="200.131" fill="#526faa" rx="30.706" ry="30.706" transform="matrix(.921 -.39 .39 .921 -73.218 39.603)"/><path d="m36.223 200.131c0-15.946 12.156-29.05 27.706-30.558-.987-.096-1.987-.148-3-.148-16.958 0-30.706 13.747-30.706 30.706 0 16.958 13.747 30.706 30.706 30.706 1.013 0 2.013-.052 3-.148-15.55-1.509-27.706-14.612-27.706-30.558z" fill="#708dc8"/><path d="m60.929 232.836c-18.034 0-32.706-14.672-32.706-32.706s14.672-32.706 32.706-32.706 32.706 14.672 32.706 32.706-14.672 32.706-32.706 32.706zm0-61.411c-15.828 0-28.706 12.877-28.706 28.706s12.877 28.706 28.706 28.706 28.706-12.877 28.706-28.706-12.877-28.706-28.706-28.706z" fill="#690589"/><ellipse cx="60.929" cy="200.131" fill="#f4efed" rx="13.838" ry="13.838" transform="matrix(.168 -.986 .986 .168 -146.583 226.651)"/><path d="m60.929 215.969c-8.733 0-15.837-7.105-15.837-15.838s7.104-15.838 15.837-15.838 15.838 7.105 15.838 15.838-7.105 15.838-15.838 15.838zm0-27.676c-6.527 0-11.837 5.311-11.837 11.838s5.31 11.838 11.837 11.838 11.838-5.311 11.838-11.838-5.31-11.838-11.838-11.838z" fill="#690589"/><path d="m83.882 117.039h-52.78c-2.85 0-5.16-2.31-5.16-5.16v-42.327c0-2.85 2.31-5.16 5.16-5.16h52.78c2.85 0 5.16 2.31 5.16 5.16v42.326c0 2.851-2.31 5.161-5.16 5.161z" fill="#ff4397"/><path d="m31.941 111.879v-42.327c0-2.85 2.31-5.16 5.16-5.16h-6c-2.85 0-5.16 2.31-5.16 5.16v42.326c0 2.85 2.31 5.16 5.16 5.16h6c-2.85.001-5.16-2.309-5.16-5.159z" fill="#ff61b5"/><path d="m83.042 69.552v42.326c0 2.85-2.31 5.16-5.16 5.16h6c2.85 0 5.16-2.31 5.16-5.16v-42.326c0-2.85-2.31-5.16-5.16-5.16h-6c2.85 0 5.16 2.311 5.16 5.16z" fill="#e12579"/><path d="m83.882 119.039h-52.781c-3.948 0-7.16-3.212-7.16-7.16v-42.326c0-3.948 3.212-7.16 7.16-7.16h52.781c3.948 0 7.16 3.212 7.16 7.16v42.326c0 3.948-3.212 7.16-7.16 7.16zm-52.781-52.646c-1.742 0-3.16 1.417-3.16 3.16v42.326c0 1.743 1.417 3.16 3.16 3.16h52.781c1.743 0 3.16-1.417 3.16-3.16v-42.326c0-1.743-1.417-3.16-3.16-3.16z" fill="#690589"/><path d="m57.492 119.039c-1.104 0-2-.896-2-2v-52.646c0-1.104.896-2 2-2s2 .896 2 2v52.646c0 1.105-.896 2-2 2z" fill="#690589"/><path d="m51.907 98.931h5.584v-16.43h-5.584c-1.14 0-2.064.924-2.064 2.064v12.302c0 1.14.924 2.064 2.064 2.064z" fill="#f4efed"/><path d="m57.492 100.931h-5.584c-2.241 0-4.064-1.823-4.064-4.064v-12.302c0-2.241 1.823-4.064 4.064-4.064h5.584c1.104 0 2 .896 2 2v16.43c0 1.104-.896 2-2 2zm-5.585-16.43-.064 12.366.064.064h3.584v-12.43z" fill="#690589"/></svg>