<svg id="Layer_3" enable-background="new 0 0 64 64" height="512" viewBox="0 0 64 64" width="512" xmlns="http://www.w3.org/2000/svg"><path d="m36 42h-8c-2.209 0-4-1.791-4-4v-6h16v6c0 2.209-1.791 4-4 4z" fill="#999"/><path d="m37 38v-6h-13v6c0 2.209 1.791 4 4 4h5c2.209 0 4-1.791 4-4z" fill="#ccc"/><path d="m56 62h-4v-38c0-1.105.895-2 2-2 1.105 0 2 .895 2 2z" fill="#ab927a"/><path d="m12 62h-4v-38c0-1.105.895-2 2-2 1.105 0 2 .895 2 2z" fill="#ab927a"/><path d="m24.121 60.121c-1.358-1.358-2.121-3.2-2.121-5.121 0-1.921.763-3.763 2.121-5.121l.879-.879 3 3 4-6 4 6 3-3 .879.879c1.358 1.358 2.121 3.2 2.121 5.121 0 1.921-.763 3.763-2.121 5.121-1.203 1.203-2.835 1.879-4.536 1.879h-6.686c-1.701 0-3.333-.676-4.536-1.879z" fill="#f8cd6d"/><path d="m35.343 63h-6.687c-1.98 0-3.842-.771-5.243-2.172-1.556-1.557-2.413-3.627-2.413-5.828s.857-4.271 2.414-5.828l.879-.879c.391-.391 1.023-.391 1.414 0l2.138 2.138 3.323-4.985c.371-.557 1.293-.557 1.664 0l3.323 4.985 2.138-2.138c.391-.391 1.023-.391 1.414 0l.879.879c1.557 1.557 2.414 3.627 2.414 5.828s-.857 4.271-2.414 5.828c-1.4 1.401-3.262 2.172-5.243 2.172zm-10.515-3.586c1.023 1.023 2.383 1.586 3.829 1.586h6.687c1.446 0 2.806-.563 3.829-1.586 1.178-1.18 1.827-2.747 1.827-4.414s-.649-3.234-1.828-4.414l-.172-.172-2.293 2.293c-.211.212-.502.314-.806.288-.298-.029-.567-.191-.733-.44l-3.168-4.752-3.168 4.752c-.166.249-.436.411-.733.44-.303.025-.594-.076-.806-.288l-2.293-2.293-.172.172c-1.179 1.18-1.828 2.747-1.828 4.414s.649 3.234 1.828 4.414z"/><path d="m2 61h60v2h-60z"/><path d="m13 62h-2v-38c0-.552-.449-1-1-1s-1 .448-1 1v38h-2v-38c0-1.654 1.346-3 3-3s3 1.346 3 3z"/><path d="m57 62h-2v-38c0-.552-.449-1-1-1s-1 .448-1 1v38h-2v-38c0-1.654 1.346-3 3-3s3 1.346 3 3z"/><path d="m36 43h-8c-2.757 0-5-2.243-5-5v-6c0-.553.448-1 1-1h16c.552 0 1 .447 1 1v6c0 2.757-2.243 5-5 5zm-11-10v5c0 1.654 1.346 3 3 3h8c1.654 0 3-1.346 3-3v-5z"/><path d="m41 32h-2v-4c0-1.654-1.346-3-3-3h-8c-1.654 0-3 1.346-3 3v4h-2v-4c0-2.757 2.243-5 5-5h8c2.757 0 5 2.243 5 5z"/><path d="m12 27h40v2h-40z"/><path d="m48 17v-2c1.103 0 2-.897 2-2 0-.556-.229-1.074-.647-1.461-.255-.236-.369-.589-.3-.93.068-.341.309-.622.635-.742.785-.289 1.312-1.039 1.312-1.867 0-1.103-.897-2-2-2-.217 0-.438.042-.677.129-.317.116-.67.062-.94-.139s-.42-.525-.399-.862c0-.025.012-.131.016-.156 0-1.075-.897-1.972-2-1.972s-2 .897-2 2h-2c0-2.206 1.794-4 4-4 1.861 0 3.43 1.277 3.874 3.002 2.248-.034 4.126 1.75 4.126 3.998 0 1.219-.567 2.354-1.488 3.1.317.58.488 1.234.488 1.9 0 2.206-1.794 4-4 4z"/><path d="m41.379 7.5h4.243v2h-4.243z" transform="matrix(.707 -.707 .707 .707 6.73 33.249)"/><path d="m44 10.438h1.999v4.123h-1.999z" transform="matrix(.243 -.97 .97 .243 21.959 53.125)"/><path d="m17 17c-2.206 0-4-1.794-4-4 0-.666.171-1.32.488-1.9-.921-.746-1.488-1.881-1.488-3.1 0-2.248 1.876-4.036 4.126-3.998.444-1.725 2.013-3.002 3.874-3.002 2.206 0 4 1.794 4 4h-2c0-1.103-.897-2-2-2s-2 .897-2 2c.003.025.016.103.017.128.021.337-.129.661-.399.862s-.625.255-.94.139c-.24-.087-.461-.129-.678-.129-1.103 0-2 .897-2 2 0 .828.527 1.578 1.312 1.867.326.12.567.401.635.742s-.045.693-.3.93c-.418.387-.647.905-.647 1.461 0 1.103.897 2 2 2z"/><path d="m20.5 6.379h2v4.243h-2z" transform="matrix(.707 -.707 .707 .707 .287 17.692)"/><path d="m17.938 11.5h4.123v1.999h-4.123z" transform="matrix(.97 -.243 .243 .97 -2.436 5.229)"/><path d="m28.707 19.707-1.414-1.414 1.293-1.293c.267-.268.414-.622.414-1s-.147-.732-.415-1l-.585-.586c-.645-.646-1-1.503-1-2.414s.355-1.769 1-2.414l1.293-1.293 1.414 1.414-1.293 1.293c-.267.268-.414.622-.414 1s.147.732.415 1l.585.586c.645.646 1 1.503 1 2.414s-.355 1.769-1 2.414z"/><path d="m34.707 19.707-1.414-1.414 1.293-1.293c.267-.268.414-.622.414-1s-.147-.732-.415-1l-.585-.586c-.645-.646-1-1.503-1-2.414s.355-1.769 1-2.414l1.293-1.293 1.414 1.414-1.293 1.293c-.267.268-.414.622-.414 1s.147.732.415 1l.585.586c.645.646 1 1.503 1 2.414s-.355 1.769-1 2.414z"/></svg>